<svg xmlns="http://www.w3.org/2000/svg" xmlns:xlink="http://www.w3.org/1999/xlink" width="0" height="0" style="position:absolute">
	
		<symbol id="icon-apple" viewBox="0 0 48 48">
			<path fill-rule="evenodd" clip-rule="evenodd" d="M31.472 0c.188 2.324-.588 4.626-2.165 6.417-1.53 1.8-3.847 2.837-6.288 2.813-.155-2.257.644-4.48 2.222-6.18C26.839 1.329 29.064.24 31.472 0zm7.448 13.282c-2.774 1.655-4.48 4.573-4.522 7.732.004 3.574 2.21 6.8 5.602 8.192a20.19 20.19 0 0 1-2.914 5.759c-1.716 2.491-3.516 4.925-6.372 4.97-1.359.03-2.276-.348-3.231-.743-.997-.412-2.036-.842-3.661-.842-1.724 0-2.809.444-3.855.87-.905.37-1.78.728-3.014.778-2.72.097-4.8-2.66-6.578-5.128-3.556-5.04-6.324-14.204-2.612-20.44 1.742-3.038 5.001-4.967 8.584-5.079 1.542-.03 3.023.546 4.32 1.052.993.387 1.88.732 2.605.732.637 0 1.498-.331 2.502-.718 1.581-.609 3.515-1.354 5.487-1.153 3.063.093 5.901 1.582 7.66 4.018z"></path>
		</symbol>
	
		<symbol id="icon-arrow-down" viewBox="0 0 10 6">
			<path fill-rule="evenodd" clip-rule="evenodd" d="M0 .6L.556 0 5 4.798 9.444 0 10 .6 5 6 0 .6z"></path>
		</symbol>
	
		<symbol id="icon-arrow-first-page" viewBox="0 0 12 10">
			<path fill-rule="evenodd" clip-rule="evenodd" d="M5.293.293l1.414 1.414L3.414 5l3.293 3.293-1.414 1.414L.586 5 5.293.293z"></path><path fill-rule="evenodd" clip-rule="evenodd" d="M10.293.293l1.414 1.414L8.414 5l3.293 3.293-1.414 1.414L5.586 5 10.293.293z"></path>
		</symbol>
	
		<symbol id="icon-arrow-last-page" viewBox="0 0 12 10">
			<path fill-rule="evenodd" clip-rule="evenodd" d="M6.828.293L5.414 1.707 8.707 5 5.414 8.293l1.414 1.414L11.535 5 6.828.293z"></path><path fill-rule="evenodd" clip-rule="evenodd" d="M1.828.293L.414 1.707 3.707 5 .414 8.293l1.414 1.414L6.535 5 1.828.293z"></path>
		</symbol>
	
		<symbol id="icon-arrow-next-page" viewBox="0 0 7 10">
			<path fill-rule="evenodd" clip-rule="evenodd" d="M1.414.293L0 1.707 3.293 5 0 8.293l1.414 1.414L6.121 5 1.414.293z"></path>
		</symbol>
	
		<symbol id="icon-arrow-prev-page" viewBox="0 0 7 10">
			<path fill-rule="evenodd" clip-rule="evenodd" d="M5.414.293l1.414 1.414L3.535 5l3.293 3.293-1.414 1.414L.707 5 5.414.293z"></path>
		</symbol>
	
		<symbol id="icon-arrow-up" viewBox="0 0 10 6">
			<path fill-rule="evenodd" clip-rule="evenodd" d="M10 5.4l-.556.6L5 1.202.556 6 0 5.4 5 0l5 5.4z"></path>
		</symbol>
	
		<symbol id="icon-close" viewBox="0 0 13 13">
			<rect x="1.368" width="16.45" height="1.935" rx=".968" transform="rotate(45 1.368 0)"></rect><rect x="13" y="1.368" width="16.45" height="1.935" rx=".968" transform="rotate(135 13 1.368)"></rect>
		</symbol>
	
		<symbol id="icon-google-play" viewBox="0 0 24 24">
			<path d="M4.294 2.808c-.22.22-.294.589-.294 1.03v16.26c0 .441.147.809.368 1.03l.073.073 9.123-9.123v-.147l-9.27-9.123zm13.723 12.446L15 12.237v-.22L18.017 9l.073.074 3.605 2.06c1.03.588 1.03 1.545 0 2.133l-3.678 1.987zm-.73.836L14.197 13 5 22.197c.368.367.883.367 1.545.073l10.742-6.18zm0-7.742L6.545 2.242c-.662-.368-1.177-.294-1.545.073l9.197 9.123 3.09-3.09z"></path>
		</symbol>
	
		<symbol id="icon-load" viewBox="0 0 20 17">
			<path d="M19.427 8.288c-.318 0-.573.233-.573.525v4.78c0 1.301-1.154 2.356-2.568 2.356H3.714c-1.418 0-2.568-1.059-2.568-2.355V8.736c0-.292-.255-.526-.573-.526-.318 0-.573.234-.573.526v4.858C0 15.474 1.668 17 3.714 17h12.572C18.336 17 20 15.47 20 13.594v-4.78c0-.289-.255-.526-.573-.526z"></path><path d="M9.597 12.827a.604.604 0 0 0 .806 0l3.642-3.34a.494.494 0 0 0 0-.744.608.608 0 0 0-.81 0l-2.662 2.445V.526C10.573.234 10.318 0 10 0c-.318 0-.573.234-.573.526v10.662L6.761 8.743a.608.608 0 0 0-.81 0 .494.494 0 0 0 0 .744l3.646 3.34z"></path>
		</symbol>
	
		<symbol id="icon-slider-next" viewBox="0 0 17 31">
			<path fill-rule="evenodd" clip-rule="evenodd" d="M1.707.293L.293 1.707 14.086 15.5.293 29.293l1.414 1.414L16.914 15.5 1.707.293z"></path>
		</symbol>
	
		<symbol id="icon-slider-prev" viewBox="0 0 18 31">
			<path fill-rule="evenodd" clip-rule="evenodd" d="M15.793.293l1.414 1.414L3.414 15.5l13.793 13.793-1.414 1.414L.586 15.5 15.793.293z"></path>
		</symbol>
	
</svg>
