<svg width="32" height="32" fill="none" xmlns="http://www.w3.org/2000/svg"><path d="M12 12h8" stroke="#F03226" stroke-width="2" stroke-linecap="round" stroke-linejoin="round"/><path fill-rule="evenodd" clip-rule="evenodd" d="M11 16a1 1 0 011-1h8a1 1 0 110 2h-8a1 1 0 01-1-1zm0 4a1 1 0 011-1h4a1 1 0 110 2h-4a1 1 0 01-1-1z" fill="#F03226"/><path fill-rule="evenodd" clip-rule="evenodd" d="M4.586 4.586A2 2 0 016 4h20a2 2 0 012 2v13.586A2 2 0 0127.414 21L21 27.414a2.002 2.002 0 01-1.414.586H6a2 2 0 01-2-2V6a2 2 0 01.586-1.414zM26 6H6v20h13.586L26 19.586V6z" fill="#F03226"/><path fill-rule="evenodd" clip-rule="evenodd" d="M19 19.999a1 1 0 011-1h6.91a1 1 0 110 2H21v5.91a1 1 0 11-2 0v-6.91z" fill="#F03226"/></svg>