<svg width="64" height="64" fill="none" xmlns="http://www.w3.org/2000/svg"><path d="M62.233 15.793S60.17 5.988 51.296 2.477C47.169.826 39.533.103 32.001 0 24.47.103 16.834.826 12.706 2.477 3.833 5.884 1.77 15.793 1.77 15.793A64.854 64.854 0 00.015 32c-.103 5.058.31 10.736 1.651 16.206 0 0 2.064 9.807 10.937 13.317 4.23 1.548 11.763 2.374 19.295 2.477 7.532 0 15.168-.826 19.398-2.374 8.873-3.51 10.937-13.316 10.937-13.316 1.342-5.575 1.754-11.252 1.754-16.207.103-5.058-.413-10.735-1.754-16.31z" fill="#F03226"/></svg>