<svg width="32" height="32" fill="none" xmlns="http://www.w3.org/2000/svg"><path fill-rule="evenodd" clip-rule="evenodd" d="M18.962 4.74a1 1 0 011.225-.706 11.019 11.019 0 017.779 7.78 1 1 0 01-1.932.518 9.019 9.019 0 00-6.366-6.366 1 1 0 01-.706-1.226zm-1.036 3.865a1 1 0 011.225-.706 7.011 7.011 0 014.95 4.95 1 1 0 11-1.931.52 5.011 5.011 0 00-3.538-3.539 1 1 0 01-.706-1.225zM10.358 5.04l2.512 5.861-2.079 3.176a1.992 1.992 0 00-.133 1.957l.902-.432-.899.44a11.544 11.544 0 005.345 5.32l.007.003a1.991 1.991 0 001.963-.147l.003-.002 3.125-2.083 5.855 2.509A5.001 5.001 0 0122 26m-9.537-10.826l2.08-3.178a2 2 0 00.165-1.883l-2.51-5.857v-.001a1.996 1.996 0 00-2.078-1.2h-.006A7.001 7.001 0 004 10a18 18 0 0018 18 7 7 0 006.944-6.114l.001-.006a1.996 1.996 0 00-1.2-2.077h-.001l-5.852-2.509a2 2 0 00-1.898.175l-3.129 2.086a9.544 9.544 0 01-4.402-4.381zM10.358 5.04A5.001 5.001 0 006 10a16 16 0 0016 16" fill="#F03226"/></svg>