<svg width="32" height="32" fill="none" xmlns="http://www.w3.org/2000/svg"><path fill-rule="evenodd" clip-rule="evenodd" d="M18.894 13.106h11c-.493-5.805-5.196-10.506-11-11v11zM16.832 1.032c0-.569.462-1.032 1.032-1.032 7.794 0 14.135 6.342 14.135 14.138 0 .568-.462 1.03-1.03 1.03H17.864c-.57 0-1.032-.462-1.032-1.03V1.032zM2.062 17.864c0 6.658 5.416 12.075 12.075 12.075 6.207 0 11.444-4.843 11.969-11.045H14.135a1.026 1.026 0 01-1.03-1.03V5.895c-6.201.524-11.043 5.761-11.043 11.97zm13.106-1.031H27.18c.569 0 1.03.462 1.03 1.031C28.21 25.66 21.899 32 14.138 32 6.34 32 0 25.659 0 17.864 0 10.104 6.341 3.79 14.137 3.79c.568 0 1.031.462 1.031 1.032v12.012z" fill="#F03226"/></svg>