<svg width="32" height="32" fill="none" xmlns="http://www.w3.org/2000/svg"><mask id="a" maskUnits="userSpaceOnUse" x="0" y="0" width="32" height="32"><path fill="#fff" d="M0 0h32v32H0z"/></mask><g mask="url(#a)"><path fill-rule="evenodd" clip-rule="evenodd" d="M30.257 8.957C27.815 3.515 22.189 0 15.923 0c-2.067 0-4.084.38-5.993 1.132a18.984 18.984 0 00-2.958 1.464.847.847 0 00-.271 1.21.96.96 0 001.28.255c.817-.5 1.712-.943 2.662-1.317a14.351 14.351 0 015.28-.997c5.52 0 10.476 3.097 12.627 7.89.9 2.004 1.388 5.732 1.6 7.777.049.448.444.786.922.786l.091-.003c.509-.047.882-.476.832-.955-.271-2.617-.793-6.18-1.738-8.285zM5.756 5.742a.843.843 0 00.277-.615.848.848 0 00-.267-.62.946.946 0 00-.653-.26h-.006a.956.956 0 00-.651.25c-3.099 2.878-6.189 8.22-3.312 17.325.117.374.475.625.888.625.09 0 .18-.013.263-.036a.918.918 0 00.551-.42.827.827 0 00.074-.666C.85 14.775 1.832 9.387 5.756 5.742zM12.33 8.73a.864.864 0 01-.38.565c-2.388 1.58-3.414 4.66-2.552 7.66.049.162 1.208 4.142 1.208 10.457 0 .482-.416.873-.927.873-.51 0-.926-.391-.926-.873 0-6.027-1.13-9.953-1.14-9.991-1.068-3.716.248-7.554 3.273-9.556a.962.962 0 011.29.213.823.823 0 01.154.652zm3.335 5.104h.003c.492-.13 1.004.138 1.145.597.064.213 1.582 5.335 1.161 16.726-.019.474-.425.843-.925.843a.963.963 0 01-.679-.276.84.84 0 01-.247-.626c.409-11.05-1.065-16.095-1.09-16.181v-.001c-.142-.462.142-.947.632-1.082zm5.934 11.372a.84.84 0 01.266.62c-.003.388.01.958.025 1.57.023.88.05 1.976.023 2.7-.017.473-.422.844-.925.844a.966.966 0 01-.678-.278.834.834 0 01-.248-.626c.024-.671-.002-1.738-.022-2.596v-.005a58.475 58.475 0 01-.026-1.622c.003-.478.418-.865.924-.865h.007c.249 0 .48.093.654.258zM11.23 4.071a12.692 12.692 0 015.139-.878c4.642.16 9.692 3.845 11.265 8.216 1.262 3.503 1.277 9.262 1.127 14.435-.013.466-.423.839-.934.849a.952.952 0 01-.665-.273.838.838 0 01-.252-.625c.145-5.016.138-10.584-1.029-13.824-1.325-3.682-5.711-6.902-9.58-7.034a10.939 10.939 0 00-4.357.746c-4.826 1.898-7.391 6.9-5.968 11.635.176.586.357 1.214.46 1.873.208 1.348.225 3.594.227 6.867v.823c0 .481-.415.874-.926.874-.51 0-.927-.393-.927-.874v-1.213c-.004-3.267-.037-5.126-.208-6.224-.085-.548-.242-1.093-.409-1.65C2.515 12.209 5.54 6.31 11.232 4.071zm4.692 6.014a5.11 5.11 0 00-1.875.354c-2.367.932-3.52 3.444-2.682 5.845.386 1.108.736 7.074.763 13.027l.002.755c0 .482.415.874.926.874.51 0 .927-.392.927-.874 0-.813-.007-1.654-.02-2.505l-.045-2.186c-.051-1.876-.26-8.111-.792-9.636-.534-1.526.17-3.11 1.635-3.688a3.16 3.16 0 011.161-.219c1.214 0 2.304.682 2.779 1.74 1.03 2.296 1.335 6.496 1.41 9.616.014.478.42.852.948.852.511-.011.917-.411.904-.893-.078-3.271-.414-7.707-1.559-10.26-.763-1.702-2.522-2.802-4.482-2.802zm-1.89-3.522a9.208 9.208 0 011.89-.194c3.546 0 6.73 1.99 8.11 5.07 1.486 3.308 1.59 8.138 1.26 17.065-.018.474-.425.843-.926.843a.963.963 0 01-.677-.277.837.837 0 01-.248-.626c.313-8.484.227-13.338-1.113-16.325-1.092-2.43-3.606-4.003-6.406-4.003-.503 0-1.005.051-1.492.152-.508.1-.993-.193-1.103-.664-.11-.47.207-.937.705-1.04z" fill="#F03226"/></g></svg>