<svg width="20" height="32" fill="none" xmlns="http://www.w3.org/2000/svg"><path fill-rule="evenodd" clip-rule="evenodd" d="M10.077 10.581h-.012l-.89 2.66h1.789l-.887-2.66zM10.07 9c.682 0 .903.495 1.076.975l.815 2.231.144.392.13.354.786 2.151.024.067a.102.102 0 01-.058.131l-1.034.4c-.054.022-.109-.011-.127-.059l-.43-1.182-.015-.043H8.758c-.044.119-.425 1.175-.445 1.225a.099.099 0 01-.126.059l-1.034-.4c-.062-.024-.073-.091-.057-.131.052-.145 1.823-4.988 1.9-5.195C9.174 9.487 9.389 9 10.07 9zm3.115 8.665c.042 0 .077.025.09.062l.01.04v1.131a.101.101 0 01-.062.094l-.038.008h-6.23a.098.098 0 01-.091-.063l-.008-.039v-1.131c0-.042.025-.079.06-.094l.039-.008h6.23zm-1.044 9.668c.395 0 .715.299.715.667 0 .368-.32.667-.715.667H7.857c-.395 0-.715-.299-.715-.667 0-.368.32-.667.715-.667h4.285zM5 2h-.713c-1.141 0-2.075.832-2.14 1.882L2.143 4v24c0 1.065.891 1.935 2.016 1.997l.127.003h11.428c1.14 0 2.074-.833 2.139-1.883l.004-.117V4c0-1.065-.892-1.936-2.017-1.997L15.714 2H15c0 .736-.64 1.333-1.428 1.333H6.428C5.638 3.333 5 2.736 5 2zm10.715-2C18.081 0 20 1.791 20 4v24c0 2.209-1.919 4-4.286 4H4.286C1.919 32 0 30.209 0 28V4c0-2.209 1.919-4 4.286-4h11.428z" fill="#F03226"/></svg>