<svg width="32" height="32" viewBox="0 0 32 32" fill="none" xmlns="http://www.w3.org/2000/svg">
<path d="M24.7302 7.49997L24.0002 6.92997C24.4202 6.28997 24.8402 5.66997 25.2402 5.03997C25.4033 4.81586 25.4707 4.53613 25.4276 4.26233C25.3844 3.98853 25.2343 3.74307 25.0102 3.57997C24.7861 3.41686 24.5064 3.34946 24.2326 3.39259C23.9588 3.43572 23.7133 3.58586 23.5502 3.80997C23.0802 4.44997 22.6502 5.12997 22.2102 5.80997C21.3302 5.48997 20.5002 5.15997 19.6402 4.91997C18.7802 4.67997 18.0002 4.51997 17.0902 4.33997V2.20997C17.6502 2.20997 18.2302 2.20997 18.8002 2.20997C19.3702 2.20997 19.9602 2.10997 20.1602 1.44997C20.3602 0.789966 20.0002 0.389966 19.4602 0.0899658H12.5202C11.9802 0.389966 11.6202 0.809966 11.8202 1.45997C12.0202 2.10997 12.5602 2.23997 13.1702 2.21997C13.7802 2.19997 14.3302 2.21997 14.8902 2.21997V4.36997C14.7698 4.40888 14.6459 4.43568 14.5202 4.44997C12.6859 4.60745 10.9097 5.17107 9.32019 6.09997C4.54019 8.89997 2.00019 13.12 2.24019 18.63C2.25193 21.1938 3.01633 23.6978 4.43852 25.8311C5.86071 27.9644 7.87806 29.633 10.2402 30.63C11.7502 31.1953 13.3059 31.6302 14.8902 31.93H17.0102C18.4363 31.6611 19.8428 31.2969 21.2202 30.84C23.422 29.939 25.3522 28.4817 26.8218 26.6108C28.2913 24.7398 29.2499 22.5194 29.6037 20.1668C29.9575 17.8142 29.6944 15.41 28.8401 13.1896C27.9858 10.9693 26.5696 9.00873 24.7302 7.49997ZM16.0002 29.8C13.6917 29.8019 11.4344 29.1192 9.51397 27.8381C7.59353 26.557 6.0962 24.7351 5.21139 22.6028C4.32658 20.4706 4.09405 18.1238 4.54321 15.8594C4.99237 13.595 6.10304 11.5147 7.73472 9.88157C9.3664 8.24849 11.4458 7.13604 13.7098 6.68494C15.9738 6.23384 18.3208 6.46436 20.4538 7.34734C22.5868 8.23032 24.41 9.72609 25.6927 11.6454C26.9755 13.5648 27.6602 15.8214 27.6602 18.13C27.6615 19.662 27.3609 21.1793 26.7755 22.5951C26.1901 24.0109 25.3315 25.2975 24.2486 26.3813C23.1657 27.4651 21.8799 28.3249 20.4646 28.9114C19.0493 29.498 17.5322 29.8 16.0002 29.8Z" fill="white"/>
<path d="M22.5201 10.77C22.1095 10.7604 21.7114 10.911 21.4101 11.19C19.4101 13.19 17.4101 15.19 15.4101 17.19C15.2745 17.318 15.1598 17.4665 15.0701 17.63C14.9876 17.8143 14.9561 18.0174 14.9788 18.2181C15.0015 18.4187 15.0776 18.6096 15.1991 18.7709C15.3205 18.9322 15.483 19.0581 15.6696 19.1353C15.8562 19.2125 16.0601 19.2383 16.2601 19.21C16.5296 19.0577 16.7841 18.8803 17.0201 18.68C18.3401 17.38 19.6501 16.06 20.9601 14.74C21.6601 14.04 22.3801 13.36 23.0501 12.64C23.2096 12.5091 23.3275 12.3344 23.3893 12.1375C23.451 11.9406 23.4539 11.7299 23.3977 11.5313C23.3414 11.3328 23.2284 11.1549 23.0725 11.0197C22.9166 10.8844 22.7246 10.7977 22.5201 10.77Z" fill="white"/>
</svg>
