<svg width="32" height="32" fill="none" xmlns="http://www.w3.org/2000/svg"><path fill="#F03226" d="M0 0h32v32H0z"/><mask id="a" maskUnits="userSpaceOnUse" x="0" y="0" width="32" height="32"><path fill="#fff" d="M0 0h32v32H0z"/></mask><g mask="url(#a)"><path fill-rule="evenodd" clip-rule="evenodd" d="M11.104 5.064h9.792l-.523-.864c-.565-1.067-.832-1.408-1.461-1.408h-5.824c-.661 0-.992.491-1.536 1.547l-.448.725zM3.2 6.814a1.46 1.46 0 00-1.461 1.461v4.562a2.28 2.28 0 001.6 2.048l8.874 2.219v-.768a2.049 2.049 0 012.027-2.037h3.509a2.059 2.059 0 012.038 2.037v.768l8.874-2.219a2.282 2.282 0 001.601-2.048V8.275A1.45 1.45 0 0028.8 6.814H3.2zm14.528 9.212H14.25a.31.31 0 00-.287.288v2.913a.875.875 0 00.49.704 6.446 6.446 0 003.105 0 .886.886 0 00.479-.704v-2.902a.31.31 0 00-.309-.288v-.011zm-15.403.331V26.8c0 .802.65 1.451 1.451 1.451h24.437c.387.003.759-.149 1.033-.422.275-.271.429-.642.429-1.029V16.357c-.193.09-.392.162-.598.213l-9.301 2.327v.34a2.55 2.55 0 01-1.792 2.401 8.245 8.245 0 01-3.968 0 2.55 2.55 0 01-1.803-2.401v-.34L2.912 16.57a3.244 3.244 0 01-.587-.213zM28.213 30H3.776a3.2 3.2 0 01-3.2-3.2V14.79A3.762 3.762 0 010 12.837V8.275a3.2 3.2 0 013.2-3.2h5.888l.907-1.6C10.517 2.493 11.296 1 13.088 1h5.824c1.717 0 2.453 1.334 2.986 2.304l1.003 1.76H28.8a3.2 3.2 0 013.2 3.2v4.563a3.758 3.758 0 01-.587 1.952V26.8a3.2 3.2 0 01-3.2 3.2z" fill="#fff"/></g></svg>