<svg width="32" height="32" viewBox="0 0 32 32" fill="none" xmlns="http://www.w3.org/2000/svg">
<g clip-path="url(#clip0_540_2017)">
<path d="M28.2701 21.86C28.2361 21.6197 28.116 21.4 27.932 21.2418C27.748 21.0835 27.5127 20.9976 27.2701 21H16.5101V20H24.0601C24.2969 20.0039 24.5274 19.9236 24.7105 19.7734C24.8936 19.6232 25.0175 19.413 25.0601 19.18C25.1449 18.7082 25.185 18.2294 25.1801 17.75C25.1875 15.3513 24.3086 13.0343 22.7121 11.244C21.1156 9.45371 18.914 8.31624 16.5301 8.05V6H19.4801C19.7453 6 19.9997 5.89464 20.1872 5.7071C20.3747 5.51957 20.4801 5.26521 20.4801 5C20.5756 4.29327 20.5187 3.5743 20.3134 2.89135C20.1081 2.20839 19.7591 1.57725 19.2898 1.04029C18.8205 0.503329 18.2418 0.0729728 17.5925 -0.221893C16.9431 -0.516759 16.2382 -0.669312 15.5251 -0.669312C14.8119 -0.669312 14.1071 -0.516759 13.4577 -0.221893C12.8084 0.0729728 12.2297 0.503329 11.7603 1.04029C11.291 1.57725 10.942 2.20839 10.7367 2.89135C10.5314 3.5743 10.4746 4.29327 10.5701 5C10.5701 5.26521 10.6754 5.51957 10.863 5.7071C11.0505 5.89464 11.3049 6 11.5701 6H14.5701V8.05C12.1844 8.31395 9.98037 9.45042 8.38181 11.241C6.78325 13.0315 5.90293 15.3497 5.91009 17.75C5.89523 18.2284 5.92536 18.7072 6.00009 19.18C6.04269 19.413 6.16658 19.6232 6.3497 19.7734C6.53283 19.9236 6.7633 20.0039 7.00009 20H14.5601V21H4.72009C4.47744 20.9976 4.24219 21.0835 4.05821 21.2418C3.87422 21.4 3.75405 21.6197 3.72009 21.86L2.50009 30.86C2.47992 31.0026 2.49078 31.1478 2.53193 31.2858C2.57307 31.4238 2.64353 31.5512 2.73848 31.6595C2.83343 31.7677 2.95063 31.8542 3.08208 31.913C3.21352 31.9717 3.35611 32.0014 3.50009 32H28.5001C28.6441 32.0014 28.7867 31.9717 28.9181 31.913C29.0495 31.8542 29.1668 31.7677 29.2617 31.6595C29.3567 31.5512 29.4271 31.4238 29.4683 31.2858C29.5094 31.1478 29.5203 31.0026 29.5001 30.86L28.2701 21.86ZM12.7201 4C12.9171 3.41757 13.2917 2.91157 13.7913 2.55317C14.2909 2.19476 14.8903 2.002 15.5051 2.002C16.1199 2.002 16.7193 2.19476 17.2189 2.55317C17.7184 2.91157 18.0931 3.41757 18.2901 4H12.7201ZM7.86009 18C7.86009 17.92 7.86009 17.83 7.86009 17.75C7.82291 16.7215 7.99339 15.696 8.36134 14.7348C8.7293 13.7736 9.28718 12.8964 10.0017 12.1556C10.7162 11.4148 11.5726 10.8256 12.5199 10.4231C13.4672 10.0207 14.4859 9.81328 15.5151 9.81328C16.5443 9.81328 17.563 10.0207 18.5103 10.4231C19.4575 10.8256 20.314 11.4148 21.0285 12.1556C21.743 12.8964 22.3009 13.7736 22.6688 14.7348C23.0368 15.696 23.2073 16.7215 23.1701 17.75C23.1751 17.8333 23.1751 17.9167 23.1701 18H7.86009ZM4.65009 30L5.60009 23H26.4001L27.4001 30H4.65009Z" fill="white"/>
</g>
<defs>
<clipPath id="clip0_540_2017">
<rect width="32" height="32" fill="white"/>
</clipPath>
</defs>
</svg>
