<svg width="32" height="32" fill="none" xmlns="http://www.w3.org/2000/svg"><path fill="#F03226" d="M0 0h32v32H0z"/><mask id="a" maskUnits="userSpaceOnUse" x="0" y="0" width="32" height="32"><path fill="#fff" d="M0 0h32v32H0z"/></mask><g mask="url(#a)"><path fill-rule="evenodd" clip-rule="evenodd" d="M16.018 1.301H16l-.066.003-.071.009-.097.023L1.445 5.464c-.09.038-.102.125-.104.161a.2.2 0 00.055.146l.052.038.06.023 6.585 1.895V6.405c0-.189.084-.365.226-.487l.076-.056.085-.045a18.999 18.999 0 017-1.53L16 4.28l.424.005a19.01 19.01 0 017.08 1.525c.214.091.36.281.395.499l.007.096-.001 1.321 6.642-1.914a.185.185 0 00.112-.164.203.203 0 00-.056-.146l-.05-.038-.062-.024-14.456-4.138-.017-.001zm-.023 4.279l-.476.008c-1.902.05-3.782.41-5.59 1.071l-.492.188v5.535a19.051 19.051 0 015.123-1.102l.528-.033.91-.022c2.08 0 4.122.332 6.076.986l.487.171-.017-5.555a17.627 17.627 0 00-5.203-1.195l-.49-.03-.856-.022zM15.975 0l.196.008.426.076 14.297 4.117c.613.176 1.033.665 1.097 1.274a1.46 1.46 0 01-.675 1.403l-.124.072-.03.012V12a1.5 1.5 0 11-1.4.02V7.396l-5.857 1.687v4.267a.635.635 0 01-.25.506.688.688 0 01-.42.144l-.081-.005-.081-.014-.096-.032a17.66 17.66 0 00-6.491-1.417l-.481-.006-.404.004a17.685 17.685 0 00-5.731 1.084l-.456.175-.384.158a.688.688 0 01-.641-.059.649.649 0 01-.287-.432l-.01-.106V9.083L1.107 7.072C.494 6.895.074 6.406.009 5.796a1.462 1.462 0 01.675-1.402l.125-.072.288-.118L15.392.087c.126-.036.256-.062.386-.076L15.975 0zm.81 24.422c-1.816 0-2.415.387-2.415 1.44 0 1.088.44 1.482 1.629 1.482.443 0 .812-.035 1.214-.131l.236-.061a13.244 13.244 0 01-.103-1.554l-.004-.276-.002-.867-.112-.011a5.395 5.395 0 00-.293-.02l-.15-.002zm0-1.353c.469 0 .969.062 1.305.158l.134.044.435.161v1.881c.009.937.062 1.57.16 2.002l.197.722-.581.211c-.91.332-1.578.448-2.436.448-1.88 0-2.948-.954-2.948-2.834 0-1.966 1.28-2.793 3.735-2.793zm-.371-7.716c-1.57 0-3.04.142-4.426.439l-.074.015.356 1.805.204-.028a24.127 24.127 0 012.06-.201l.235-.008.197-.002c2.825 0 3.614.557 3.687 2.775l.006.374v1.683l-1.078-.289a6.794 6.794 0 00-1.657-.205c-3.696 0-5.605 1.682-5.605 4.739 0 2.613 1.798 4.198 4.472 4.198.975 0 1.992-.179 2.746-.468l.265-.127c.242-.121.434-.235.735-.437l.343-.233.553-.383.366.572c.166.258.465.553.755.776l.143.105.07.044 1.778-1.221-.086-.151c-.713-1.255-.983-2.256-1.036-3.832l-.008-.323-.002-.319v-4.297l-.002-.287c-.018-1.811-.198-2.524-.734-3.314-.691-.978-1.893-1.4-4.263-1.4zm0-1.353c2.75 0 4.342.559 5.338 1.969.677.998.93 1.926.974 3.785l.004.301v4.596c0 1.931.23 2.786 1.13 4.234.199.317.19.722-.055 1.077l-.081.105-.121.102-2.305 1.593a.894.894 0 01-.915.066 4.493 4.493 0 01-.966-.687l-.187-.177-.115-.122-.037.025a6.673 6.673 0 01-.68.391l-.184.091-.172.081c-.948.364-2.122.57-3.251.57C11.43 32 9 29.859 9 26.45c0-3.854 2.54-6.09 6.924-6.09.34 0 .674.02 1.002.061l.328.048.086.016-.003-.394c-.026-1.134-.221-1.327-1.631-1.359l-.538-.005-.202-.001c-.685 0-1.672.101-2.95.288a.84.84 0 01-.795-.336l-.063-.1-.043-.095-.02-.055-.028-.101-.537-2.713a.873.873 0 01.634-1.02c1.644-.402 3.385-.594 5.25-.594z" fill="#fff"/></g></svg>