<svg width="32" height="32" viewBox="0 0 32 32" fill="none" xmlns="http://www.w3.org/2000/svg">
<rect width="32" height="32" fill="#F03226"/>
<mask id="mask0_656_883" style="mask-type:alpha" maskUnits="userSpaceOnUse" x="0" y="0" width="32" height="32">
<rect width="32" height="32" fill="white"/>
</mask>
<g mask="url(#mask0_656_883)">
<path fill-rule="evenodd" clip-rule="evenodd" d="M14.9682 6.0635V4.48393H8.62444V6.0635C8.62444 6.5975 8.19031 7.03162 7.65632 7.03162C7.12334 7.03162 6.68819 6.5975 6.68819 6.0635V4.48393H4.79068C3.21722 4.48393 1.93726 5.76389 1.93726 7.33735V27.2093C1.93726 28.7828 3.21722 30.0627 4.79068 30.0627H27.2103C28.7838 30.0627 30.0638 28.7828 30.0638 27.2093V7.33735C30.0638 5.76389 28.7838 4.48393 27.2103 4.48393H25.2486V6.0635C25.2486 6.5975 24.8135 7.03162 24.2805 7.03162C23.7465 7.03162 23.3124 6.5975 23.3124 6.0635V4.48393H16.9044V6.0635C16.9044 6.5975 16.4703 7.03162 15.9363 7.03162C15.4033 7.03162 14.9682 6.5975 14.9682 6.0635ZM6.68819 0.968122C6.68819 0.434126 7.12334 0 7.65632 0C8.19031 0 8.62444 0.434126 8.62444 0.968122V2.54769H14.9682V0.968122C14.9682 0.434126 15.4033 0 15.9363 0C16.4703 0 16.9044 0.434126 16.9044 0.968122V2.54769H23.3124V0.968122C23.3124 0.434126 23.7465 0 24.2805 0C24.8135 0 25.2486 0.434126 25.2486 0.968122V2.54769H27.2103C29.8508 2.54769 32 4.6959 32 7.33735V27.2093C32 29.8508 29.8508 31.999 27.2103 31.999H4.79068C2.14923 31.999 0 29.8508 0 27.2093V7.33735C0 4.6959 2.14923 2.54769 4.79068 2.54769H6.68819V0.968122ZM18.739 11.7956C19.4421 11.7956 20.0128 12.3663 20.0128 13.0694C20.0128 13.7726 19.4421 14.3433 18.739 14.3433C18.0358 14.3433 17.4651 13.7726 17.4651 13.0694C17.4651 12.3663 18.0358 11.7956 18.739 11.7956ZM25.554 13.0694C25.554 12.3663 24.9834 11.7956 24.2802 11.7956C23.577 11.7956 23.0063 12.3663 23.0063 13.0694C23.0063 13.7726 23.577 14.3433 24.2802 14.3433C24.9834 14.3433 25.554 13.7726 25.554 13.0694ZM19.7073 19.5791V23.1836H23.3138L23.3118 19.5791H19.7073ZM20.013 17.6429H23.006C24.2422 17.6429 25.248 18.6487 25.248 19.8848V22.8778C25.248 24.114 24.2422 25.1198 23.006 25.1198H20.013C18.7769 25.1198 17.7711 24.114 17.7711 22.8778V19.8848C17.7711 18.6487 18.7769 17.6429 20.013 17.6429ZM7.65652 22.878C8.35968 22.878 8.93037 23.4487 8.93037 24.1519C8.93037 24.8551 8.35968 25.4257 7.65652 25.4257C6.95336 25.4257 6.38268 24.8551 6.38268 24.1519C6.38268 23.4487 6.95336 22.878 7.65652 22.878ZM8.93037 13.0694C8.93037 12.3663 8.35968 11.7956 7.65652 11.7956C6.95336 11.7956 6.38268 12.3663 6.38268 13.0694C6.38268 13.7726 6.95336 14.3433 7.65652 14.3433C8.35968 14.3433 8.93037 13.7726 8.93037 13.0694ZM7.65652 17.3368C8.35968 17.3368 8.93037 17.9075 8.93037 18.6107C8.93037 19.3138 8.35968 19.8845 7.65652 19.8845C6.95336 19.8845 6.38268 19.3138 6.38268 18.6107C6.38268 17.9075 6.95336 17.3368 7.65652 17.3368ZM14.4716 18.6107C14.4716 17.9075 13.9009 17.3368 13.1977 17.3368C12.4946 17.3368 11.9239 17.9075 11.9239 18.6107C11.9239 19.3138 12.4946 19.8845 13.1977 19.8845C13.9009 19.8845 14.4716 19.3138 14.4716 18.6107ZM13.1977 11.7956C13.9009 11.7956 14.4716 12.3663 14.4716 13.0694C14.4716 13.7726 13.9009 14.3433 13.1977 14.3433C12.4946 14.3433 11.9239 13.7726 11.9239 13.0694C11.9239 12.3663 12.4946 11.7956 13.1977 11.7956ZM14.4716 24.1519C14.4716 23.4487 13.9009 22.878 13.1977 22.878C12.4946 22.878 11.9239 23.4487 11.9239 24.1519C11.9239 24.8551 12.4946 25.4257 13.1977 25.4257C13.9009 25.4257 14.4716 24.8551 14.4716 24.1519Z" fill="white"/>
</g>
</svg>
