<svg width="32" height="32" viewBox="0 0 32 32" fill="none" xmlns="http://www.w3.org/2000/svg">
<path d="M15 2V2.13C15.2438 2.05632 15.4956 2.01266 15.75 2C15.49 2 15.25 2 15 2ZM16.25 2C16.5055 2.02345 16.7572 2.07716 17 2.16V2C16.75 2 16.51 2 16.25 2ZM16.25 30C16.51 30 16.75 30 17 30V29.87C16.756 29.9427 16.5042 29.9863 16.25 30ZM15 30C15.25 30 15.49 30 15.75 30C15.4944 29.9776 15.2425 29.9239 15 29.84V30Z" fill="white"/>
<path d="M30.1999 8.63C30.1727 8.56366 30.1392 8.50005 30.0999 8.44C28.7637 5.94559 26.7898 3.85019 24.3795 2.3675C21.9693 0.884809 19.2089 0.0678719 16.3799 0H15.6199C12.791 0.0678719 10.0306 0.884809 7.62036 2.3675C5.21011 3.85019 3.23621 5.94559 1.89995 8.44C1.86071 8.50005 1.82723 8.56366 1.79995 8.63C0.618296 10.907 0.00146484 13.4347 0.00146484 16C0.00146484 18.5653 0.618296 21.093 1.79995 23.37C1.82723 23.4363 1.86071 23.5 1.89995 23.56C3.23621 26.0544 5.21011 28.1498 7.62036 29.6325C10.0306 31.1152 12.791 31.9321 15.6199 32H16.3799C19.2089 31.9321 21.9693 31.1152 24.3795 29.6325C26.7898 28.1498 28.7637 26.0544 30.0999 23.56C30.1392 23.5 30.1727 23.4363 30.1999 23.37C31.3816 21.093 31.9984 18.5653 31.9984 16C31.9984 13.4347 31.3816 10.907 30.1999 8.63ZM28.6499 22H23.8999C24.2438 20.3542 24.4379 18.6808 24.4799 17H29.9999C29.8707 18.7371 29.4126 20.4339 28.6499 22ZM29.9999 15H24.4799C24.4379 13.3192 24.2438 11.6458 23.8999 10H28.6499C29.4126 11.5661 29.8707 13.2629 29.9999 15ZM27.4699 8H23.3999C22.8867 6.1684 22.0539 4.44186 20.9399 2.9C23.5813 3.9022 25.8577 5.68008 27.4699 8ZM16.9999 15V10H21.8499C22.2166 11.6432 22.4275 13.3172 22.4799 15H16.9999ZM22.4799 17C22.4275 18.6828 22.2166 20.3568 21.8499 22H16.9999V17H22.4799ZM16.9999 2V2.13C18.7499 2.78 20.2899 5 21.2899 8H16.9999V2.17C16.7576 2.08376 16.5058 2.02669 16.2499 2C16.5099 2 16.7499 2 16.9999 2ZM16.9999 29.79V24H21.2899C20.2899 27 18.7499 29.22 16.9999 29.83V30C16.7499 30 16.5099 30 16.2499 30C16.5058 29.9733 16.7576 29.9162 16.9999 29.83V29.79ZM10.7099 24H14.9999V29.83C15.2424 29.9139 15.4943 29.9676 15.7499 29.99C15.4899 29.99 15.2499 29.99 14.9999 29.99V29.86C13.2499 29.21 11.7099 27 10.7099 24ZM14.9999 17V22H10.1499C9.78331 20.3568 9.57237 18.6828 9.51995 17H14.9999ZM9.51995 15C9.57237 13.3172 9.78331 11.6432 10.1499 10H14.9999V15H9.51995ZM14.9999 2.17V2C15.2499 2 15.4899 2 15.7499 2C15.4943 2.02239 15.2424 2.07613 14.9999 2.16V8H10.7099C11.7099 5 13.2499 2.79 14.9999 2.17ZM11.0699 2.9C9.95658 4.44359 9.12074 6.16941 8.59995 8H4.52995C6.14483 5.67849 8.42489 3.90046 11.0699 2.9ZM8.09995 10C7.75614 11.6458 7.56202 13.3192 7.51995 15H1.99995C2.11661 13.2655 2.56113 11.5689 3.30995 10H8.09995ZM1.99995 17H7.51995C7.56202 18.6808 7.75614 20.3542 8.09995 22H3.34995C2.58729 20.4339 2.12917 18.7371 1.99995 17ZM4.48995 24H8.59995C9.12074 25.8306 9.95658 27.5564 11.0699 29.1C8.42489 28.0995 6.14483 26.3215 4.52995 24H4.48995ZM20.8999 29.1C22.028 27.561 22.8744 25.8343 23.3999 24H27.4699C25.8577 26.3199 23.5813 28.0978 20.9399 29.1H20.8999Z" fill="white"/>
<path d="M15.75 2C15.4944 2.02239 15.2425 2.07613 15 2.16V2C15.25 2 15.49 2 15.75 2Z" fill="white"/>
<path d="M17 2V2.13C16.756 2.05735 16.5042 2.01371 16.25 2C16.51 2 16.75 2 17 2Z" fill="white"/>
<path d="M15 29.83C15.2425 29.9139 15.4944 29.9676 15.75 29.99C15.49 29.99 15.25 29.99 15 29.99V29.83Z" fill="white"/>
<path d="M17 29.83V30C16.75 30 16.51 30 16.25 30C16.5059 29.9733 16.7576 29.9163 17 29.83Z" fill="white"/>
</svg>
