<svg width="28" height="32" fill="none" xmlns="http://www.w3.org/2000/svg"><path fill-rule="evenodd" clip-rule="evenodd" d="M27.662 4.9a.927.927 0 01.001 1.432l-5.637 4.675a.966.966 0 01-.691.215.951.951 0 01-.644-.33.924.924 0 01.119-1.316l3.636-3.042H9.947c-2.964.005-5.379 2.383-5.384 5.3v2.417a.941.941 0 01-.948.933.941.941 0 01-.947-.933v-2.392c.005-3.947 3.27-7.163 7.279-7.168h14.49l-3.636-3.044a.92.92 0 01-.117-1.314.96.96 0 011.334-.116L27.661 4.9zM24.345 17c.523 0 .948.412.948.92v2.383c-.004 3.892-3.27 7.064-7.28 7.067H3.554l3.64 3.004c.4.327.451.907.115 1.295a.943.943 0 01-.644.325.925.925 0 01-.69-.21L.337 27.171a.906.906 0 010-1.411l5.69-4.664a.943.943 0 01.73-.337c.089 0 .177.012.265.037a.936.936 0 01.566.439.895.895 0 01.082.7c-.07.236-.231.431-.52.595l-3.636 3h14.5c2.963-.004 5.378-2.35 5.384-5.228V17.92c0-.508.425-.92.946-.92z" fill="#F03226"/></svg>