<svg width="32" height="32" fill="none" xmlns="http://www.w3.org/2000/svg"><path d="M12.5 23a4.5 4.5 0 100-9 4.5 4.5 0 000 9z" stroke="#fff" stroke-width="2" stroke-linecap="round" stroke-linejoin="round"/><path d="M5.12 28a8.332 8.332 0 013.014-3.5 8.004 8.004 0 014.366-1.3c1.546 0 3.06.451 4.366 1.3a8.332 8.332 0 013.015 3.5h8.952a1.14 1.14 0 00.825-.352A1.202 1.202 0 0030 26.8V5.2a1.22 1.22 0 00-.342-.849A1.15 1.15 0 0028.833 4H3.167c-.31 0-.606.126-.825.351-.22.226-.342.53-.342.849v21.6a1.23 1.23 0 00.342.849 1.165 1.165 0 00.825.351h1.952z" stroke="#fff" stroke-width="2" stroke-linecap="round" stroke-linejoin="round"/><path d="M22.75 23H25V9H7v2.333" stroke="#fff" stroke-width="2" stroke-linecap="round" stroke-linejoin="round"/></svg>