<svg width="32" height="32" viewBox="0 0 32 32" fill="none" xmlns="http://www.w3.org/2000/svg">
<g clip-path="url(#clip0_656_942)">
<path d="M29.65 24.24C28.1177 22.8884 26.171 22.0984 24.13 22C23.2959 21.9217 22.4846 21.684 21.74 21.3C21.95 21.3 22.17 21.18 22.39 21.11C23.7391 20.788 24.9068 19.9473 25.64 18.77C25.8036 18.459 25.8823 18.1104 25.8682 17.7593C25.8542 17.4082 25.7479 17.0669 25.56 16.77C25.247 16.2214 24.9923 15.6416 24.8 15.04C24.5635 14.2992 24.3896 13.5399 24.28 12.77C24.2181 12.1749 24.2181 11.575 24.28 10.98C24.5434 9.0075 24.4142 7.00241 23.9 5.07999C23.3268 3.39942 22.2027 1.96174 20.71 0.999993C19.6112 0.339621 18.352 -0.006291 17.07 -7.4467e-06C16.6675 -0.000926951 16.2657 0.0359009 15.87 0.109993C15.1733 0.271058 14.5009 0.523229 13.87 0.859993H13.45C12.5149 0.842887 11.5903 1.05943 10.76 1.48999C8.52003 2.67999 7.76003 5.88999 7.53003 6.83999C7.32751 8.50051 7.32751 10.1795 7.53003 11.84C7.53003 12.08 7.53003 12.31 7.53003 12.51C7.61812 13.2273 7.61812 13.9527 7.53003 14.67C7.41003 15.06 6.95003 16.24 6.67003 16.95C6.52243 17.3126 6.4845 17.7106 6.56093 18.0945C6.63737 18.4785 6.82481 18.8316 7.10003 19.11C8.12434 19.9996 9.31356 20.6792 10.6 21.11C9.74192 21.6054 8.78669 21.909 7.80003 22C5.76033 22.0956 3.81378 22.882 2.28003 24.23C1.53722 24.9931 0.953207 25.8961 0.561836 26.8865C0.170464 27.877 -0.0204918 28.9352 2.99994e-05 30C0.013077 30.5217 0.229537 31.0177 0.603205 31.382C0.976873 31.7463 1.47815 31.9502 2.00003 31.95H29.93C30.4519 31.9502 30.9532 31.7463 31.3269 31.382C31.7005 31.0177 31.917 30.5217 31.93 30C31.9633 27.8537 31.1432 25.782 29.65 24.24ZM29.93 29.92H2.00003C1.987 28.3602 2.57004 26.8543 3.63003 25.71C4.8227 24.686 6.32035 24.0848 7.89003 24C9.7162 23.7862 11.4471 23.0696 12.89 21.93V19.78C12.89 19.78 9.58003 18.84 8.46003 17.71C8.46003 17.71 9.20003 15.89 9.39003 15.24C9.57129 14.3008 9.60167 13.3387 9.48003 12.39C9.28241 10.6768 9.25895 8.94794 9.41003 7.22999C9.67003 5.94999 10.41 3.88999 11.61 3.22999C12.1562 2.95762 12.7598 2.82044 13.37 2.82999C13.6586 2.82826 13.9467 2.85506 14.23 2.90999C14.8364 2.50168 15.5152 2.21316 16.23 2.05999C16.507 2.00926 16.7887 1.98914 17.07 1.99999C17.9494 1.98081 18.8172 2.2021 19.58 2.63999C20.6859 3.34149 21.5186 4.40005 21.94 5.63999C22.3764 7.28612 22.4852 9.00195 22.26 10.69C22.1737 11.4375 22.1737 12.1925 22.26 12.94C22.3765 13.8598 22.5773 14.767 22.86 15.65C23.1185 16.4023 23.4536 17.1261 23.86 17.81C23.3666 18.504 22.6321 18.9889 21.8 19.17C20.8927 19.4708 19.9527 19.6622 19 19.74V21.9C20.4396 23.0504 22.1708 23.7775 24 24C25.5685 24.082 27.066 24.6796 28.26 25.7C29.337 26.8406 29.9348 28.3513 29.93 29.92Z" fill="white"/>
</g>
<defs>
<clipPath id="clip0_656_942">
<rect width="32" height="32" fill="white"/>
</clipPath>
</defs>
</svg>
