<svg width="32" height="24" fill="none" xmlns="http://www.w3.org/2000/svg"><path fill-rule="evenodd" clip-rule="evenodd" d="M29.898 18.192c.02-.223.227-2.64.227-4.988v-2.372c0-2.385-.213-4.836-.228-4.994-.08-.724-.393-2.061-.901-2.585l-.008-.008c-.817-.862-1.708-.963-2.297-1.03a18.844 18.844 0 00-.093-.01l-.072-.009c-4.01-.287-9.993-.336-10.498-.34a62.284 62.284 0 01-.056 0c-.505.004-6.49.053-10.537.34a9.632 9.632 0 01-.153.018c-.573.066-1.439.165-2.261 1.06-.495.533-.824 1.853-.919 2.573-.02.226-.227 2.64-.227 4.985v2.372c0 2.38.213 4.828.228 4.995.08.71.394 2.023.901 2.547l.017.019c.739.803 1.698.912 2.399.991.138.015.269.03.391.05 2.368.218 9.914.332 10.232.336.283 0 6.431-.046 10.522-.338l.057-.007.144-.016c.597-.061 1.416-.149 2.213-1.016.516-.557.839-1.962.919-2.573zM31.764 5.65l.001.015.001.016c.021.238.234 2.69.234 5.152v2.372a65.62 65.62 0 01-.233 5.152l-.002.018-.004.032c-.032.25-.338 2.47-1.399 3.61-1.273 1.389-2.71 1.54-3.399 1.612l-.02.002c-.059.006-.111.011-.16.018l-.055.006c-4.062.292-10.112.341-10.647.346h-.074c-.526-.008-8-.121-10.408-.348l-.074-.01a3.07 3.07 0 00-.21-.028l-.108-.013c-.824-.093-2.354-.267-3.564-1.578C.534 20.868.264 18.64.237 18.39l-.002-.016c0-.003 0-.01-.002-.018A65.62 65.62 0 010 13.204v-2.372C0 8.371.213 5.918.234 5.68l.001-.016.004-.032c.032-.25.338-2.47 1.399-3.612C2.929.614 4.373.45 5.066.37a7.29 7.29 0 00.151-.018l.056-.006C9.371.054 15.422.004 15.956-.001h.088c.534.005 6.585.055 10.645.347l.056.006.09.01.069.008h.001c.701.08 2.16.245 3.448 1.602 1.114 1.153 1.383 3.422 1.411 3.677zM13.81 8.843v5.676l5.283-2.813-5.283-2.863zm.046-2.091l7.07 3.83c.418.227.677.66.676 1.133a1.286 1.286 0 01-.684 1.128l-7.07 3.764a1.3 1.3 0 01-1.281-.029 1.271 1.271 0 01-.632-1.103V7.88c0-.459.237-.873.636-1.106a1.296 1.296 0 011.285-.022z" fill="#fff"/></svg>