<svg width="32" height="32" viewBox="0 0 32 32" fill="none" xmlns="http://www.w3.org/2000/svg">
<g clip-path="url(#clip0_656_907)">
<path d="M24 0H8C7.46957 0 6.96086 0.210714 6.58579 0.585786C6.21071 0.960859 6 1.46957 6 2V12C6 12.5304 6.21071 13.0391 6.58579 13.4142C6.96086 13.7893 7.46957 14 8 14H24C24.5304 14 25.0391 13.7893 25.4142 13.4142C25.7893 13.0391 26 12.5304 26 12V2C26 1.46957 25.7893 0.960859 25.4142 0.585786C25.0391 0.210714 24.5304 0 24 0V0ZM24 13V12H8V2H24V12V13Z" fill="white"/>
<path d="M12.9902 6H9.99023V9H12.9902V6Z" fill="white"/>
<path d="M31.24 16.39C30.8027 15.9011 30.2269 15.5569 29.5891 15.4033C28.9514 15.2497 28.282 15.2939 27.67 15.53L20.26 18.85L19.34 17.93C19.0451 17.6339 18.6944 17.3992 18.3082 17.2396C17.922 17.08 17.5079 16.9985 17.09 17H11.91C11.0984 16.9985 10.3085 17.2618 9.66004 17.75L6.96004 19.75C6.71117 19.5429 6.41025 19.408 6.09004 19.36C5.65368 19.291 5.20702 19.3797 4.83004 19.61L0.670041 21.05C0.428516 21.1431 0.232511 21.3263 0.123244 21.5609C0.0139772 21.7956 -3.75733e-05 22.0635 0.0841471 22.3083C0.168332 22.553 0.344156 22.7556 0.574646 22.8735C0.805135 22.9913 1.07233 23.0151 1.32004 22.94L5.60004 21.48C5.70004 21.48 5.60004 21.37 5.70004 21.31L5.91004 21.6L6.00004 21.74L9.43004 26.54L9.55004 26.71C9.61961 26.8053 9.66505 26.916 9.68246 27.0327C9.69988 27.1494 9.68875 27.2685 9.65004 27.38L7.20004 30.38C7.08272 30.5284 7.00991 30.7071 6.99007 30.8952C6.97022 31.0833 7.00415 31.2733 7.08792 31.4429C7.17169 31.6125 7.30185 31.7549 7.46331 31.8535C7.62476 31.9521 7.81088 32.0029 8.00004 32C8.14775 31.999 8.2934 31.9653 8.42654 31.9013C8.55968 31.8374 8.67699 31.7447 8.77004 31.63L11.31 28.57C11.3558 28.5105 11.396 28.4469 11.43 28.38C11.6413 27.9522 11.7345 27.4758 11.7 27H19.13C19.3261 26.9985 19.5173 26.9393 19.68 26.83C19.77 26.77 28.79 20.83 30.74 19.9C31.0484 19.7786 31.3235 19.5856 31.5425 19.337C31.7616 19.0883 31.9184 18.7912 32 18.47C32.0464 18.0879 32.0017 17.7003 31.8696 17.3388C31.7375 16.9773 31.5218 16.6522 31.24 16.39ZM29.85 18.1C28 19 20.34 24 18.83 25H10.83L8.19004 21.35L10.87 19.35C11.1598 19.1352 11.5094 19.0163 11.87 19.01H17.05C17.3637 19.0092 17.6652 19.1312 17.89 19.35L18.79 20.25C18.6036 20.5492 18.3587 20.8077 18.07 21.01H12C11.7348 21.01 11.4805 21.1153 11.2929 21.3029C11.1054 21.4904 11 21.7448 11 22.01C11 22.2752 11.1054 22.5296 11.2929 22.7171C11.4805 22.9046 11.7348 23.01 12 23.01H18.09C19.39 23.01 20.39 21.57 20.84 20.78L28.4 17.39C28.6253 17.3059 28.8707 17.2915 29.1042 17.3486C29.3378 17.4056 29.5489 17.5315 29.71 17.71C29.8214 17.7907 29.9193 17.8886 30 18L29.85 18.1Z" fill="white"/>
</g>
<defs>
<clipPath id="clip0_656_907">
<rect width="32" height="32" fill="white"/>
</clipPath>
</defs>
</svg>
