<svg width="32" height="32" fill="none" xmlns="http://www.w3.org/2000/svg"><path fill="#F03226" d="M0 0h32v32H0z"/><mask id="a" maskUnits="userSpaceOnUse" x="0" y="0" width="32" height="32"><path fill="#fff" d="M0 0h32v32H0z"/></mask><g mask="url(#a)"><path fill-rule="evenodd" clip-rule="evenodd" d="M12.725 3.039L4.062 9.646a5.432 5.432 0 00-2.126 4.294v10.718a5.407 5.407 0 005.402 5.402h17.324a5.407 5.407 0 005.402-5.402V13.94a5.43 5.43 0 00-2.126-4.294l-8.663-6.607c-1.865-1.423-4.685-1.423-6.55 0zM0 24.659V13.94a7.377 7.377 0 012.888-5.834l8.663-6.607A7.325 7.325 0 0116 0c1.57 0 3.14.5 4.45 1.5l8.663 6.606A7.384 7.384 0 0132 13.94v10.718c0 4.046-3.292 7.339-7.338 7.339H7.338C3.292 31.997 0 28.704 0 24.658zm12.064-5.746h4.031a4.036 4.036 0 004.032-4.032 4.036 4.036 0 00-4.032-4.032 4.036 4.036 0 00-4.031 4.032v4.032zm-1.937-4.032a5.975 5.975 0 015.968-5.968 5.975 5.975 0 015.968 5.968 5.976 5.976 0 01-5.968 5.969h-4.031v5.083a.97.97 0 01-.968.968.97.97 0 01-.969-.968V14.88z" fill="#fff"/></g></svg>