<svg width="32" height="28" fill="none" xmlns="http://www.w3.org/2000/svg"><path fill-rule="evenodd" clip-rule="evenodd" d="M30.215 24.201l-.038-.14-2.694-3.683H4.519L1.89 23.923l-.06.115a1.692 1.692 0 001.44 2.212l8.654.009v-.411c0-.449.336-.822.762-.865l6.52-.005c.447 0 .82.335.864.761l.028.52h8.465c.58 0 1.097-.28 1.416-.767.25-.38.335-.833.235-1.29zM7.925 1.742a2.981 2.981 0 00-2.968 2.79l-.005 14.042h22.104l-.005-13.86a2.98 2.98 0 00-2.6-2.947L7.925 1.742zM24.077 0a4.704 4.704 0 014.712 4.5l.004.214v7.301l.019 7.23 2.843 3.84.056.108a3.416 3.416 0 01-.274 3.253 3.398 3.398 0 01-2.658 1.548L3.439 28a3.426 3.426 0 01-2.875-1.554 3.408 3.408 0 01-.282-3.233l2.926-3.993V4.714A4.702 4.702 0 017.711.005L7.926 0h16.15zM19.18 14.32V5.93a.872.872 0 00-1.742 0v8.39a.872.872 0 001.742 0zm4.486 0V12.4a.873.873 0 00-1.742 0v1.921a.872.872 0 001.742 0zm-8.973-3.906v3.906a.872.872 0 01-1.743 0v-3.906a.873.873 0 011.743 0zm-4.486 3.906V9.133a.872.872 0 00-1.744 0v5.187a.872.872 0 001.744 0z" fill="#F03226"/></svg>