<svg width="24" height="31" fill="none" xmlns="http://www.w3.org/2000/svg"><path fill-rule="evenodd" clip-rule="evenodd" d="M0 25.794c0 2.46 2 4.46 4.46 4.46h4.055a.825.825 0 000-1.648H4.46a2.815 2.815 0 01-2.813-2.812V4.46A2.815 2.815 0 014.46 1.647h14.902a2.816 2.816 0 012.812 2.813v7.454a.825.825 0 101.648 0V4.46c0-2.46-2-4.461-4.46-4.461H4.46A4.466 4.466 0 000 4.46v21.334zm22.753-4.46h-5.034a.703.703 0 00-.702.702c0 .327.374.7.702.7h3.224l-6.219 6.22c-.133.21-.213.465-.213.597 0 .206.053.33.213.488a.795.795 0 001.085 0l6.22-6.218v3.333c0 .433.364.702.701.702.328 0 .702-.375.702-.702 0 0-.048-4.67-.048-5.169 0-.499-.27-.653-.631-.653zM5.666 7.273H18.15a.825.825 0 010 1.648H5.666a.825.825 0 010-1.648zM18.15 13.77a.825.825 0 000-1.649H5.666a.825.825 0 000 1.649H18.15zm-4.079 4.024c0 .454-.37.824-.824.824H5.666a.825.825 0 010-1.648h7.582c.455 0 .824.37.824.824z" fill="#F03226"/></svg>