<svg width="32" height="32" fill="none" xmlns="http://www.w3.org/2000/svg"><path fill="#F03226" d="M0 0h32v32H0z"/><mask id="a" maskUnits="userSpaceOnUse" x="0" y="0" width="32" height="32"><path fill="#fff" d="M0 0h32v32H0z"/></mask><g mask="url(#a)"><path fill-rule="evenodd" clip-rule="evenodd" d="M19.26 7.323c0 2.973 2.424 5.39 5.402 5.39 2.979 0 5.402-2.417 5.402-5.39s-2.423-5.39-5.402-5.39c-2.978 0-5.401 2.417-5.401 5.39zm-1.935 0C17.325 3.285 20.617 0 24.662 0 28.708 0 32 3.285 32 7.323s-3.292 7.323-7.338 7.323c-4.045 0-7.337-3.285-7.337-7.323zm6.653-2.53a.715.715 0 011.43 0v2.343h1.295c.393 0 .715.32.715.713a.715.715 0 01-.715.714H24.66a.715.715 0 01-.694-.888l.01-2.883zM7.464 27.652h17.07c3.05 0 5.53-2.476 5.53-5.519V20.29c0-.853-.695-1.56-1.555-1.577h-.024c-.403 0-.788.16-1.083.45a1.654 1.654 0 00-.498 1.177v1.793a2.37 2.37 0 01-2.37 2.365H7.465a2.37 2.37 0 01-2.369-2.365V20.29a1.58 1.58 0 00-3.16 0v1.843c0 3.043 2.48 5.519 5.53 5.519zM32 20.29v1.843c0 2.06-.873 4.052-2.392 5.459l-.107.177.014 3.263a.968.968 0 01-1.936 0v-2.085l-.415.158a7.431 7.431 0 01-2.63.479H7.465a7.429 7.429 0 01-2.569-.456l-.412-.15v2a.968.968 0 01-1.935 0l.003-3.086.009-.147-.11-.098A7.46 7.46 0 010 22.134v-1.843a3.516 3.516 0 017.03 0v1.843c0 .239.195.433.434.433h17.07a.435.435 0 00.435-.433v-1.793c0-.953.393-1.883 1.076-2.555.68-.664 1.563-1.03 2.507-1.003.925.018 1.79.39 2.44 1.049A3.485 3.485 0 0132 20.29zM13.26 6.739h-3.248c-3.68 0-7.009 2.786-7.579 6.343a.966.966 0 00.803 1.106.964.964 0 001.109-.8c.415-2.601 2.958-4.717 5.667-4.717h3.249a.968.968 0 00.967-.966.968.968 0 00-.967-.966z" fill="#fff"/></g></svg>