<svg width="32" height="32" fill="none" xmlns="http://www.w3.org/2000/svg"><path fill="#F03226" d="M0 0h32v32H0z"/><mask id="a" maskUnits="userSpaceOnUse" x="0" y="0" width="32" height="32"><path fill="#fff" d="M0 0h32v32H0z"/></mask><g mask="url(#a)"><path fill-rule="evenodd" clip-rule="evenodd" d="M15.936 29.6l1.488-1.49-1.19-5.413h-.597l-1.19 5.413 1.49 1.49zM16 1.936a6.428 6.428 0 00-6.42 6.42 6.414 6.414 0 006.126 6.414l.294-.003.318.003a6.414 6.414 0 006.102-6.413c0-3.54-2.88-6.42-6.42-6.42zm11.91 21.128a14.28 14.28 0 00-10.59-6.3l-.416-.038 2.526 11.488a.967.967 0 01-.261.892l-2.548 2.548a.998.998 0 01-1.37 0l-2.548-2.548a.97.97 0 01-.261-.893l2.523-11.478-.42.043c-6.147.633-11.318 5.286-12.574 11.317-.102.488.02.988.332 1.372.182.223.585.597 1.257.597h5.56a.97.97 0 01.968.968.97.97 0 01-.968.969H3.56a3.562 3.562 0 01-3.483-4.299 16.31 16.31 0 015.596-9.237 16.183 16.183 0 015.24-2.88l.557-.184-.47-.352a8.294 8.294 0 01-3.358-6.692C7.642 3.749 11.392 0 16 0c4.608 0 8.357 3.75 8.357 8.357a8.296 8.296 0 01-3.354 6.69l-.47.351.558.184a16.36 16.36 0 018.428 6.403.97.97 0 01-.266 1.344.972.972 0 01-1.343-.265zm-6.19 7.968a.97.97 0 01.968-.968h5.752c.67 0 1.074-.374 1.255-.597.313-.383.434-.883.332-1.372a.966.966 0 011.479-1.007.97.97 0 01.418.613 3.562 3.562 0 01-.726 2.987A3.539 3.539 0 0128.44 32h-5.752a.97.97 0 01-.968-.969z" fill="#fff"/></g></svg>