<svg width="32" height="32" fill="none" xmlns="http://www.w3.org/2000/svg"><mask id="a" maskUnits="userSpaceOnUse" x="0" y="0" width="32" height="32"><path fill="#fff" d="M0 0h32v32H0z"/></mask><g mask="url(#a)"><path fill-rule="evenodd" clip-rule="evenodd" d="M16 2.055c-1.484 0-3 2.181-3 5.138 0 2.958 1.516 5.138 3 5.138s3-2.18 3-5.138c0-2.957-1.516-5.138-3-5.138zM16 0c2.762 0 5 3.221 5 7.193 0 3.973-2.238 7.194-5 7.194s-5-3.22-5-7.194C11 3.221 13.238 0 16 0zm-1.669 21.373a5.434 5.434 0 00-6.98.711.931.931 0 01-.664.281H1.875v5.781h4.812c.102 0 .202.016.297.05l5.048 1.73c.287.097.587.147.889.147h7.262c.557 0 1.096-.168 1.56-.485l7.966-5.457a.98.98 0 00.26-1.336.92.92 0 00-1.299-.269l-5.154 3.531a.919.919 0 01-.52.162H12.313a.95.95 0 01-.938-.963.95.95 0 01.938-.963h8.277c-.387-1.122-1.43-1.928-2.653-1.928h-1.874a.923.923 0 01-.52-.16l-1.212-.832zm-8.017-.934a7.278 7.278 0 019.057-.67l.976.67h1.59c2.265 0 4.159 1.658 4.594 3.854h.181l4.917-3.369c1.289-.887 3.035-.53 3.899.801.861 1.328.511 3.125-.78 4.01l-7.965 5.456a4.578 4.578 0 01-2.6.81h-7.262a4.567 4.567 0 01-1.482-.248l-4.903-1.68H.937c-.517 0-.937-.432-.937-.964v-7.707a.95.95 0 01.937-.963h5.377z" fill="#F03226"/></g></svg>