<svg width="32" height="32" fill="none" xmlns="http://www.w3.org/2000/svg"><path fill="#F03226" d="M0 0h32v32H0z"/><mask id="a" maskUnits="userSpaceOnUse" x="0" y="0" width="32" height="32"><path fill="#fff" d="M0 0h32v32H0z"/></mask><g mask="url(#a)"><path fill-rule="evenodd" clip-rule="evenodd" d="M30.074 20.119a1.038 1.038 0 00-.012.148 2.856 2.856 0 01-2.853 2.853H4.789a2.856 2.856 0 01-2.852-2.853V4.548h28.125l.002 15.222h.046l-.036.349zM32 3.58a.97.97 0 00-.97-.97H16.969V.969a.97.97 0 00-1.937 0v1.643H.968A.97.97 0 000 3.58v16.687c0 2.64 2.149 4.79 4.79 4.79h10.24v5.006h-4.127a.97.97 0 00-.968.968.97.97 0 00.968.968H21.03a.97.97 0 00.969-.968.97.97 0 00-.969-.968h-4.063v-5.006H27.21c2.642 0 4.79-2.15 4.79-4.79 0-.05-.003-.1-.01-.148l-.05-.349H32V3.58z" fill="#fff"/></g></svg>