<svg width="32" height="32" fill="none" xmlns="http://www.w3.org/2000/svg"><path fill-rule="evenodd" clip-rule="evenodd" d="M14.968 6.064v-1.58H8.624v1.58a.969.969 0 01-1.936 0v-1.58H4.791a2.857 2.857 0 00-2.854 2.853V27.21a2.857 2.857 0 002.854 2.854h22.42a2.857 2.857 0 002.853-2.854V7.337a2.857 2.857 0 00-2.854-2.853h-1.96v1.58a.969.969 0 01-1.936 0v-1.58h-6.409v1.58a.969.969 0 01-1.936 0zM6.688.968a.969.969 0 011.936 0v1.58h6.344V.968a.969.969 0 011.936 0v1.58h6.408V.968a.969.969 0 011.937 0v1.58h1.961c2.64 0 4.79 2.148 4.79 4.79v19.871c0 2.642-2.15 4.79-4.79 4.79H4.79A4.795 4.795 0 010 27.209V7.337c0-2.641 2.15-4.79 4.79-4.79h1.898V.969zM18.74 11.796a1.274 1.274 0 11-.001 2.548 1.274 1.274 0 01.001-2.548zm6.815 1.273a1.274 1.274 0 10-2.548.001 1.274 1.274 0 002.548 0zm-5.847 6.51v3.605h3.607l-.002-3.605h-3.605zm.306-1.936h2.993a2.245 2.245 0 012.242 2.242v2.993a2.245 2.245 0 01-2.242 2.242h-2.993a2.245 2.245 0 01-2.242-2.242v-2.993a2.245 2.245 0 012.242-2.242zM7.657 22.878a1.274 1.274 0 11-.001 2.549 1.274 1.274 0 010-2.549zm1.273-9.809a1.274 1.274 0 10-2.548.001 1.274 1.274 0 002.548 0zm-1.273 4.268a1.274 1.274 0 11-.001 2.548 1.274 1.274 0 010-2.548zm6.815 1.274a1.274 1.274 0 10-2.55 0 1.274 1.274 0 002.55 0zm-1.274-6.815a1.274 1.274 0 11-.001 2.548 1.274 1.274 0 010-2.548zm1.274 12.356a1.274 1.274 0 10-2.55 0 1.274 1.274 0 002.55 0z" fill="#fff"/></svg>