<svg width="237" height="48" viewBox="0 0 237 48" fill="none" xmlns="http://www.w3.org/2000/svg">
<g clip-path="url(#clip0_605_2189)">
<path d="M228.868 9.47546L220.801 18.623V9.47546H214.946V32.5574H220.801V22.8197L229.453 32.5574H237L226.363 20.4591L236.219 9.47546H228.868Z" fill="#EF3124"/>
<path d="M204.602 18.0984H196.535V9.47546H190.68V32.5574H196.535V23.4427H204.602V32.5574H210.457V9.47546H204.602V18.0984Z" fill="#EF3124"/>
<path d="M34.7401 21.9673C34.61 26.2623 34.057 27.1148 31.6499 27.1148V32.5246H32.5282C38.5133 32.5246 39.9446 29.4099 40.1723 22.4919L40.4325 14.8197H46.0273V32.5246H51.8824V9.47546H35.1304L34.7401 21.9673Z" fill="#EF3124"/>
<path d="M66.4548 16.4919H62.2262V9.47546H56.3711V32.5246H66.5199C72.8954 32.5246 75.1724 28.3607 75.1724 24.4263C75.1724 19.3443 72.0171 16.4919 66.4548 16.4919ZM65.9994 27.4755H62.2262V21.6066H65.9994C68.0162 21.6066 69.2522 22.4919 69.2522 24.4263C69.2522 26.5246 68.0812 27.4755 65.9994 27.4755Z" fill="#EF3124"/>
<path d="M94.234 8.95081V0.393433H88.379V8.95081C81.6782 9.50819 77.1567 14.3279 77.1567 20.9836C77.1567 27.7049 81.6782 32.4918 88.379 33.082V41.7705H94.234V33.082C100.935 32.5574 105.456 27.7049 105.456 20.9836C105.456 14.2623 100.935 9.4754 94.234 8.95081ZM88.379 27.5082C85.1261 27.0492 83.1094 24.5902 83.1094 20.9836C83.1094 17.377 85.1261 14.918 88.379 14.459V27.5082ZM94.234 27.5082V14.4918C97.4868 14.918 99.5361 17.377 99.5361 20.9836C99.5361 24.5902 97.4868 27.0492 94.234 27.5082Z" fill="#EF3124"/>
<path d="M127.413 25.4426V17.7049C127.413 12.0656 123.835 8.49182 117.817 8.49182C111.604 8.49182 108.319 12.2623 108.026 16.1967H113.946C114.141 15.3443 115.052 13.8689 117.817 13.8689C120.094 13.8689 121.558 14.9181 121.558 17.7049H115.735C110.531 17.7049 107.44 20.459 107.44 25.0492C107.44 29.8361 110.823 33.1148 115.703 33.1148C119.281 33.1148 121.265 31.4099 122.111 30.1312C122.891 31.6722 124.583 32.5574 126.827 32.5574H128.844V27.2131C127.803 27.2131 127.413 26.7213 127.413 25.4426ZM121.558 23.9344C121.558 26.5902 119.704 28.0984 117.264 28.0984C115.15 28.0984 113.491 27.3115 113.491 25.0164C113.491 22.7541 115.312 22.3935 116.906 22.3935H121.59V23.9344H121.558Z" fill="#EF3124"/>
<path d="M152.459 12.7541H145.921V6.2295H161.079V0.393433H139.773V32.5574H152.459C159.485 32.5574 163.519 29.0492 163.519 22.5574C163.519 16.459 159.518 12.7541 152.459 12.7541ZM152.199 26.7213H145.954V18.3606H152.199C155.452 18.3606 157.274 19.8688 157.274 22.5246C157.274 25.2787 155.452 26.7213 152.199 26.7213Z" fill="#EF3124"/>
<path d="M185.931 25.4426V17.7049C185.931 12.0656 182.353 8.49182 176.335 8.49182C170.122 8.49182 166.837 12.2623 166.544 16.1967H172.464C172.659 15.3443 173.57 13.8689 176.335 13.8689C178.612 13.8689 180.076 14.9181 180.076 17.7049H174.253C169.049 17.7049 165.958 20.459 165.958 25.0492C165.958 29.8361 169.341 33.1148 174.221 33.1148C177.799 33.1148 179.783 31.4099 180.629 30.1312C181.409 31.6722 183.101 32.5574 185.345 32.5574H187.362V27.2131C186.321 27.2131 185.931 26.7213 185.931 25.4426ZM180.076 23.9344C180.076 26.5902 178.222 28.0984 175.782 28.0984C173.668 28.0984 172.009 27.3115 172.009 25.0164C172.009 22.7541 173.83 22.3935 175.424 22.3935H180.108V23.9344H180.076Z" fill="#EF3124"/>
<path d="M31.2921 41.4426H0V48H31.2921V41.4426Z" fill="#EF3124"/>
<path d="M21.3383 4.78689C20.4275 2.13115 19.4191 0 15.8736 0C12.3605 0 11.2871 2.09836 10.3438 4.78689L0.650391 32.5574H7.05843L9.30288 25.9672H21.6636L23.7454 32.5574H30.5763L21.3383 4.78689ZM11.1895 20.3607L15.5483 7.21312H15.7109L19.842 20.3607H11.1895Z" fill="#EF3124"/>
</g>
<defs>
<clipPath id="clip0_605_2189">
<rect width="237" height="48" fill="white"/>
</clipPath>
</defs>
</svg>
