<svg width="161" height="48" fill="none" xmlns="http://www.w3.org/2000/svg"><path fill-rule="evenodd" clip-rule="evenodd" d="M20.597 4.872c-.86-2.329-1.899-4.657-5.122-4.657-3.224 0-4.299 2.364-5.123 4.657-.43 1.182-8.704 23.856-9.027 24.716a.51.51 0 00.287.61c.125.053 1.29.5 2.454.948 1.164.448 2.328.896 2.453.95.251.107.538-.072.61-.287a989.43 989.43 0 012.113-5.803h12.465c.114.283.664 1.808 1.175 3.225.46 1.274.888 2.46.939 2.578.107.25.358.358.609.287.136-.04 1.477-.564 2.726-1.053 1.05-.411 2.034-.797 2.181-.846a.46.46 0 00.287-.609c-.1-.272-1.51-4.132-3.186-8.725l-.004-.01c-2.511-6.88-5.622-15.402-5.837-15.981zM.215 41.946c0-.286.215-.501.466-.501h29.588c.25 0 .465.215.465.501v5.373c0 .287-.215.502-.465.502H.68c-.251 0-.466-.215-.466-.502v-5.373zm15.26-34.209l-4.227 12.645h8.49L15.51 7.737h-.035zm107.821 20.92c1.468 0 2.256-.932 2.256-2.364 0-1.54-.752-2.221-2.256-2.329-.753 0-1.469.072-1.792.144v4.334c.753.215 1.218.215 1.792.215zm5.265-2.544c0-2.65-1.54-4.477-4.836-4.477-.788 0-1.361.072-2.221.286V18.09a20.388 20.388 0 012.472-.144c.967 0 2.185.072 3.26.18l.071-2.222c-1.217-.286-2.973-.43-4.334-.43-1.361 0-3.439.323-4.442.61v14.113c1.541.573 3.081.824 4.621.824 3.547 0 5.409-1.899 5.409-4.908zm-36.072 2.472c1.29 0 2.078-1.29 2.078-3.26 0-2.149-.645-3.223-1.934-3.188-.537 0-.896 0-1.576.323v5.91c.609.18.895.215 1.433.215zm-7.773-3.188c0-2.15.645-3.295 1.935-3.295.537 0 .895 0 1.576.322v5.91c-.61.215-.896.215-1.433.215-1.469.036-2.078-1.182-2.078-3.152zm6.34 4.98v3.868H88.3v-3.869c-.359.215-1.075.537-2.293.537-2.58 0-4.155-1.934-4.155-5.552 0-3.868 1.755-5.624 4.62-5.624.717 0 1.218.072 1.792.359V15.51h2.794v4.549c.573-.287 1.074-.358 1.79-.358 2.866 0 4.622 1.683 4.622 5.588 0 3.653-1.756 5.623-4.156 5.623-1.182 0-1.898-.322-2.256-.537zm-21.313.357V20.418c-1.54-.466-2.722-.645-4.298-.645s-2.723.215-4.263.645v5.301c0 1.433-.036 1.863-.179 2.329-.143.394-.358.895-.931 1.29l.752 1.647c2.257-.645 3.116-1.612 3.116-4.764v-3.904l.29-.042c.513-.075.693-.102 1.215-.102.5 0 .661.024 1.119.092l.35.052v8.417h2.83zm33.17-2.006c.466 0 .896-.035 1.505-.25-.108-.359-.143-.896-.143-1.72v-.788c-.144-.072-.502-.107-.824-.107-1.397 0-2.114.358-2.114 1.433 0 1.038.573 1.432 1.576 1.432zM108 29.731c-.752-1.146-.931-1.79-.931-3.224v-2.901c0-1.54-.179-2.113-.609-2.722-.573-.788-1.505-1.147-3.296-1.147a14.97 14.97 0 00-3.618.43l.43 2.078c.788-.108 1.612-.215 2.221-.215 1.863 0 2.078.287 2.078 1.683v.538a5.805 5.805 0 00-1.433-.18c-2.83 0-4.299 1.362-4.299 3.654 0 2.114 1.576 3.296 3.511 3.296a5.64 5.64 0 002.077-.394c.333-.133.48-.235.873-.508l.095-.065c.286.43.859.824 1.074.895L108 29.731zm25.97-1.003c.466 0 .896-.035 1.505-.25-.072-.359-.144-.896-.144-1.72v-.788c-.143-.072-.465-.107-.824-.107-1.397 0-2.113.358-2.113 1.433 0 1.038.573 1.432 1.576 1.432zm5.087 1.003c-.753-1.146-.932-1.79-.932-3.224v-2.901c0-1.54-.179-2.113-.573-2.722-.573-.788-1.54-1.147-3.295-1.147-1.254 0-2.472.144-3.618.43l.43 2.078c.788-.108 1.612-.215 2.221-.215 1.862 0 2.077.287 2.077 1.683v.538a5.58 5.58 0 00-1.433-.18c-2.83 0-4.298 1.362-4.298 3.654 0 2.114 1.576 3.296 3.51 3.296.717 0 1.469-.143 2.078-.394.333-.133.48-.235.872-.507l.095-.066c.287.43.86.824 1.075.895l1.791-1.218zm-63.045-.895c1.361 0 1.72-.752 1.72-1.791 0-1.003-.43-1.648-1.72-1.648-.324 0-.424.02-.775.092-.116.023-.258.052-.443.087v3.08c.573.18.752.18 1.218.18zm-4.048-8.92v10.245c1.326.573 2.794.824 4.12.824 3.008 0 4.585-1.54 4.585-4.084 0-2.292-1.433-3.725-4.084-3.725-.68 0-1.075.072-1.791.25v-3.51h-2.83zm77.409.108v10.71h-2.83v-4.37h-3.188v4.37h-2.83v-10.71h2.83v4.048h3.188v-4.048h2.83zm11.57 10.71s-1.54-3.295-1.898-4.012c-.43-.824-.824-1.432-1.684-1.647v-.036c.573-.108 1.039-.466 1.54-1.54.466-1.04.609-1.29.896-1.505.287-.25.645-.143.645-.143l.143-1.934c-.394-.072-.86-.072-1.325-.036-.753.035-1.147.25-1.541.644-.286.287-.501.717-.752 1.218-.251.538-.466.968-.752 1.54l-.02.04c-.272.545-.391.785-1.126.785h-.466v-4.084h-2.83v10.71h2.83v-4.37h.394c.788 0 .931.215 1.361 1.039.502 1.003 1.433 3.331 1.433 3.331h3.152zm-101.731 0h-3.26s-.394-1.29-.824-2.937h-5.373c-.501 1.612-.931 2.937-.931 2.937h-3.116l5.194-14.973.168-.053c.462-.147.733-.233 1.408-.233.68 0 1.325.107 1.826.286l4.908 14.973zm-8.74-5.444l.01-.036h3.822s-.86-3.045-1.003-3.475c-.322-1.11-.823-3.116-.823-3.116h-.072s-.537 1.934-.896 3.152c-.134.436-.926 3.098-1.028 3.439h-.01v.036zm60.537.071c0-.967.788-1.79 1.791-1.79.967 0 1.791.823 1.791 1.79a1.774 1.774 0 01-1.791 1.791 1.774 1.774 0 01-1.791-1.79z" fill="#EE3524"/></svg>