<svg width="40" height="64" fill="none" xmlns="http://www.w3.org/2000/svg"><path fill-rule="evenodd" clip-rule="evenodd" d="M26.714 6.26C25.587 3.13 24.225 0 20 0c-4.225 0-5.634 3.178-6.714 6.26-.563 1.59-11.408 32.073-11.83 33.228a.691.691 0 00.375.819c.164.072 1.69.674 3.216 1.276 1.526.602 3.052 1.204 3.216 1.276.329.145.704-.096.798-.385.094-.289 2.488-7.03 2.77-7.801h16.338c.148.38.87 2.43 1.54 4.335a269.422 269.422 0 001.23 3.466c.14.337.47.482.798.385.179-.052 1.936-.758 3.573-1.415a185.457 185.457 0 012.859-1.137c.423-.145.47-.578.376-.819-.132-.366-1.978-5.553-4.175-11.727-3.293-9.253-7.375-20.72-7.656-21.5zM14.46 27.112l5.54-17h.047l5.54 17H14.46zM0 56.102c0-.385.282-.674.61-.674h38.78c.328 0 .61.29.61.674v7.224c0 .385-.282.674-.61.674H.61c-.328 0-.61-.289-.61-.674v-7.224z" fill="#F03226"/></svg>